PathFileType	4	(X/Y/Z)	C:/Users/beibeiliu/ov580/test_trc\sequence.38_training_dense_left.trc
DataRate	CameraRate	NumFrames	NumMarkers	Units	OrigDataRate	OrigDataStartFrame	OrigNumFrames
120	120	19	19	mm	120	157	312
Frame#	Time	ThumbCMC			ThumbMCP			ThumbIP			ThumbTip			IndexMCP			IndexPIP			IndexTip			MiddleMCP			MiddlePIP			MiddleTip			RingMCP			RingPIP			RingTip			PinkyMCP			PinkyPIP			PinkyTip			BackHand1			BackHand2			BackHand3	
		X0	Y0	Z0	X1	Y1	Z1	X2	Y2	Z2	X3	Y3	Z3	X4	Y4	Z4	X5	Y5	Z5	X6	Y6	Z6	X7	Y7	Z7	X8	Y8	Z8	X9	Y9	Z9	X10	Y10	Z10	X11	Y11	Z11	X12	Y12	Z12	X13	Y13	Z13	X14	Y14	Z14	X15	Y15	Z15	X16	Y16	Z16	X17	Y17	Z17	X18	Y18	Z18	
156	1.3	-190.679	26.8299	9.42676	-183.468	23.5128	-15.876	-181.7	22.0294	-41.7624	-180.765	13.9015	-61.6	-211.103	6.44413	-50.7939	-190.54	-8.98408	-58.5718	-174.234	-9.94006	-34.1406	-217.913	-12.0501	-49.909	-192.123	-25.6266	-51.3416	-182.633	-18.2919	-19.7754	-221.658	-26.9766	-39.9615	-193.85	-31.2184	-39.2331	-186.057	-23.2657	-13.4077	-226.465	-32.6113	-24.3092	-204.06	-39.676	-30.7257	-187.818	-32.3979	-10.4201	-236.502	-2.71385	3.83038	-230.122	5.19669	30.5225	-223.743	20.3746	9.15209	
157	1.30833	-189.016	30.0803	10.8325	-179.802	23.8022	-14.2825	-179.244	20.6066	-41.6999	-182.061	9.7986	-60.421	-209.983	12.3425	-51.5776	-190.841	-5.20407	-60.2331	-171.95	-7.44707	-34.8706	-220.113	-10.0123	-46.9532	-190.896	-23.1436	-52.6021	-183.366	-15.3973	-19.5084	-221.986	-26.9439	-37.9994	-195.199	-31.378	-39.6433	-186.225	-22.3201	-13.5701	-226.22	-35.7706	-26.2953	-203.358	-39.6874	-31.6633	-190.112	-26.2653	-13.8768	-238.371	-4.78562	3.58169	-232.033	3.06879	31.0244	-221.264	24.913	10.5996	
158	1.31667	-192.064	28.1446	8.1472	-180.075	25.2272	-19.0976	-179.564	19.0046	-38.4543	-178.217	11.1295	-59.3311	-212.243	10.5085	-52.7243	-190.729	-4.98264	-61.0792	-173.339	-9.16515	-38.1758	-217.755	-9.02853	-51.9708	-194.06	-22.154	-55.6182	-182.546	-17.0523	-24.4248	-221.127	-26.7146	-41.8067	-195.031	-30.3009	-41.8144	-184.333	-24.3629	-17.8893	-226.444	-36.9146	-27.0607	-204.685	-42.7412	-31.2033	-189.127	-28.3127	-12.8512	-235.985	-3.24767	6.57806	-232.789	2.80455	31.9694	-223.815	24.875	9.43758	
159	1.325	-190.62	30.2494	9.96631	-179.873	26.1181	-20.2053	-178.925	20.8196	-42.9322	-176.741	11.5245	-61.8349	-212.499	16.3743	-50.8053	-190.02	-2.901	-63.1937	-175.33	-8.96819	-42.8377	-221.57	-8.0613	-48.2764	-194.477	-23.0692	-53.897	-182.09	-13.9427	-25.2833	-223.309	-25.0028	-38.8221	-195.851	-28.2818	-43.8832	-184.937	-20.3584	-19.7041	-227.056	-33.2055	-26.9388	-204.988	-37.637	-33.8037	-187.328	-27.1956	-20.4441	-238.254	-2.53362	7.10894	-233.913	3.88705	30.551	-225.839	22.7989	9.20038	
160	1.33333	-192.18	29.5701	11.2113	-180.577	26.1178	-17.2331	-176.14	21.9111	-41.5508	-175.223	11.5575	-64.2751	-216.835	13.3023	-52.098	-196.306	-0.234795	-66.0401	-173.213	-7.52598	-44.9827	-220.798	-6.2248	-51.319	-195.478	-19.6796	-56.0145	-182.551	-13.4715	-24.9151	-225.212	-21.1078	-38.1315	-195.835	-31.773	-42.8168	-184.911	-22.8681	-22.5858	-228.265	-34.4694	-24.3408	-202.432	-39.5769	-33.5841	-186.81	-24.4528	-19.0161	-237.707	0.349159	2.61944	-230.311	6.75454	30.177	-225.088	26.7435	11.29	
161	1.34167	-194.019	30.5031	9.99975	-178.4	27.9217	-18.4064	-177.075	20.992	-41.6557	-174.223	11.9977	-62.9301	-217.064	17.8115	-51.2829	-199.479	3.79154	-67.9878	-175.937	-7.68852	-48.2923	-224.126	-5.66264	-47.4738	-199.347	-20.6313	-57.8154	-181.864	-16.0221	-30.2205	-226.492	-23.4114	-40.7687	-200.337	-27.3729	-47.082	-184.993	-21.817	-22.5333	-229.348	-33.3282	-23.5471	-208.168	-37.2288	-36.718	-187.673	-30.1262	-22.1309	-238.057	-2.44572	3.35111	-233.422	1.49271	29.546	-228.122	22.1271	10.1946	
162	1.35	-196.363	30.2439	8.14051	-180.731	26.5399	-19.7421	-174.474	21.9774	-39.8591	-174.077	11.3833	-59.3748	-219.689	18.3941	-52.4077	-199.205	-0.637614	-67.5346	-176.168	-7.57264	-50.3854	-225.778	-6.37229	-51.5224	-197.695	-17.2196	-60.321	-181.359	-13.1791	-34.3728	-225.656	-21.4427	-43.3798	-202.487	-29.2143	-47.6536	-185.145	-23.0743	-27.7765	-230.275	-34.4739	-27.2595	-207.893	-40.7379	-36.9572	-186.457	-28.2826	-22.3826	-238.795	-2.80135	5.612	-234.109	3.02745	28.8546	-226.781	26.6198	11.2901	
163	1.35833	-196.338	31.7926	6.23855	-181.479	26.0533	-16.3317	-175.866	20.2959	-43.5504	-171.587	10.2862	-59.4668	-221.357	17.0994	-52.1886	-202.301	0.829767	-68.3365	-179.611	-5.92965	-54.4547	-226.706	-4.3765	-51.5462	-204.276	-18.6795	-61.2073	-182.575	-13.0616	-38.1378	-229.241	-21.0723	-39.5854	-205.741	-27.2159	-50.906	-185.716	-19.0809	-30.3765	-230.179	-31.3588	-25.9375	-210.28	-37.3902	-39.4429	-190.617	-30.2	-28.0008	-240.926	-2.93894	6.96501	-232.76	5.71034	30.9891	-226.726	26.0709	12.3132	
164	1.36667	-198.468	30.2981	5.94261	-181.848	25.0732	-16.8427	-178.21	17.1812	-40.5483	-171.416	9.32984	-60.1778	-223.345	17.7202	-54.205	-204.378	4.55336	-70.1946	-182.537	-3.2224	-55.9381	-228.499	-2.01911	-50.2101	-203.616	-17.3469	-61.9307	-183.535	-13.8094	-36.0349	-229.698	-20.7467	-40.9288	-205.898	-29.9868	-50.8213	-187.537	-20.3315	-33.9962	-231.297	-33.702	-24.4059	-209.816	-34.783	-40.7882	-189.13	-24.226	-28.8481	-239.26	-4.77263	6.8194	-234.371	1.21281	33.5869	-230.725	24.4965	9.23761	
165	1.375	-199.404	31.6794	5.13605	-184.7	23.5871	-17.7038	-178.743	16.4112	-42.1009	-174.113	5.73988	-59.8339	-226.908	18.6558	-50.2098	-207.64	1.4588	-68.5109	-184.601	-4.54388	-55.3017	-230.256	-6.44928	-50.0663	-203.42	-17.3799	-62.2638	-183.144	-10.6714	-40.133	-229.773	-18.7653	-42.4684	-204.259	-26.4675	-51.6522	-187.561	-19.0438	-34.1052	-231.04	-32.0322	-27.8321	-212.193	-39.9657	-39.932	-192.656	-26.6845	-30.6654	-242.542	-6.25758	7.80518	-236.473	2.55233	30.1067	-233.949	20.897	11.5832	
166	1.38333	-200.137	32.3909	5.58284	-183.624	25.6127	-18.3629	-177.774	19.6743	-42.8374	-177.447	4.23879	-58.0866	-229.085	17.4884	-48.3887	-210.193	3.34852	-68.9781	-182.298	1.52659	-55.9915	-231.91	-6.09348	-52.3954	-205.658	-15.834	-63.1051	-184.142	-11.6031	-39.6026	-232.866	-24.0089	-39.1852	-207.848	-25.9204	-51.6569	-188.867	-22.1958	-33.1102	-230.769	-36.7885	-27.6891	-210.356	-34.8962	-40.2886	-190.43	-27.8653	-30.1315	-243.039	-8.24141	9.281	-235.028	2.01554	32.2508	-232.795	23.2164	9.71784	
167	1.39167	-201.547	32.4514	9.89223	-187.196	24.0784	-19.5419	-179.043	20.4549	-38.9602	-175.617	6.09862	-59.5742	-231.854	15.3021	-51.7032	-211.934	2.43343	-68.4318	-186.003	0.119112	-55.6611	-233.158	-8.74441	-49.3774	-209.026	-16.2811	-62.9513	-185.621	-13.8172	-38.2676	-232.51	-21.2297	-37.4243	-207.102	-27.5231	-51.3815	-187.822	-20.4829	-31.3826	-231.691	-34.0479	-25.0486	-211.599	-39.5337	-39.1252	-189.419	-29.8215	-30.7276	-243.981	-9.60664	7.85944	-235.407	-1.53617	33.342	-234.613	20.8546	10.2647	
168	1.4	-205.608	28.6382	7.67181	-187.92	25.4671	-14.7882	-183.89	16.7633	-39.1711	-176.328	8.55344	-59.0894	-233.394	14.7552	-49.1447	-213.474	1.50899	-67.6135	-187.734	-1.38619	-55.7466	-232.992	-7.46359	-49.8567	-208.989	-16.8913	-62.6868	-184.13	-11.5352	-37.3539	-230.698	-25.0026	-41.6929	-206.526	-24.6446	-50.825	-189.166	-19.4827	-34.4623	-231.006	-36.8697	-24.4441	-209.986	-37.0522	-40.2845	-192.422	-26.659	-32.1656	-242.518	-10.4894	10.1101	-236.553	-5.51564	33.6061	-237.575	20.3259	14.1337	
169	1.40833	-204.228	32.9153	10.7711	-192.734	23.4475	-17.3273	-187.682	17.646	-39.6686	-180.361	10.0496	-56.2622	-234.752	14.2572	-48.5401	-215.08	5.44185	-68.4229	-189.971	2.29239	-57.5418	-235.099	-10.6855	-46.7571	-207.428	-14.104	-62.6371	-185.448	-11.6111	-42.3265	-233.22	-24.1605	-36.7797	-207.533	-30.2709	-50.3957	-185.558	-20.2762	-30.3955	-230.755	-35.0682	-25.4258	-210.194	-40.699	-37.6432	-190.825	-28.7512	-30.6749	-241.875	-9.98368	10.4183	-237.965	-2.3916	35.6439	-239.211	16.9839	14.5363	
170	1.41667	-208.012	32.2297	6.99578	-191.033	29.9448	-17.2756	-187.286	24.0933	-36.9455	-182.511	12.0793	-59.7509	-234.24	11.4557	-50.6012	-215.958	3.37381	-66.994	-188.92	0.121665	-55.4252	-235.015	-12.3925	-48.5353	-207.342	-14.6459	-62.6995	-187.554	-14.7835	-39.3471	-231.106	-29.039	-40.1265	-204.709	-27.8642	-49.4325	-188.005	-20.2971	-33.9323	-230.324	-40.4232	-22.1526	-212.453	-39.068	-37.4125	-190.495	-24.8489	-27.7539	-241.427	-14.7624	11.6946	-237.87	-6.33047	36.1582	-239.501	16.1213	15.99	
171	1.425	-209.001	33.1183	9.22873	-195.729	27.2834	-16.2659	-193.186	21.9876	-39.5475	-187.972	16.3445	-56.5824	-233.478	11.1936	-50.8566	-215.521	0.931628	-64.9989	-187.629	-1.28127	-53.6483	-235.191	-12.246	-47.3156	-211.523	-16.9013	-61.6204	-186.709	-11.4536	-37.5228	-231.781	-26.339	-37.258	-208.894	-30.1909	-49.104	-186.349	-18.7622	-30.2207	-229.629	-40.6906	-20.0537	-209.308	-40.0589	-37.265	-192.36	-26.3213	-29.4484	-242.952	-16.0785	8.698	-237.351	-4.57806	38.3445	-237.697	18.8189	15.357	
172	1.43333	-209.876	32.3489	9.21412	-196.069	31.6488	-17.308	-196.899	24.88	-40.5008	-189.519	21.1375	-60.8359	-234.709	11.452	-46.3037	-215.03	0.37053	-65.107	-188.232	1.87649	-54.8296	-234.543	-14.0619	-43.8903	-208.709	-16.4627	-59.9977	-187.397	-9.5137	-33.1521	-230.191	-27.3763	-39.8596	-204.198	-28.3068	-47.4225	-187.399	-20.2807	-28.7839	-227.753	-43.8725	-19.8587	-206.364	-39.9086	-35.6411	-187.489	-23.8791	-24.8065	-242.638	-12.0564	8.53271	-237.784	-6.87577	35.6881	-239.093	13.4932	17.5935	
173	1.44167	-213.494	29.6056	8.84926	-202.618	27.7406	-18.8468	-199.88	28.0291	-43.6548	-196.896	21.0965	-60.6043	-235.335	7.49736	-46.0867	-210.403	0.428795	-64.5513	-188.332	-1.47138	-50.3698	-233.694	-14.645	-44.7474	-205.202	-16.7348	-58.0524	-188.496	-5.49409	-31.7316	-229.491	-27.4454	-35.7751	-203.849	-31.2153	-46.3259	-188.354	-13.1533	-28.2349	-227.287	-42.2809	-22.8318	-205.946	-38.1078	-35.8966	-188.059	-23.2419	-24.4538	-243.416	-11.8399	11.3439	-236.548	-6.62651	32.6989	-241.303	16.6425	13.3636	
174	1.45	-215.048	29.2926	7.88749	-207.242	27.685	-19.1074	-204.403	28.589	-44.1563	-203.908	19.0763	-60.6314	-235.818	9.76236	-46.7223	-210.838	-1.59306	-62.131	-186.901	2.5404	-45.0241	-232.864	-15.7979	-45.8533	-203.352	-17.7179	-55.7703	-188.927	-8.64035	-32.2938	-227.176	-32.7874	-37.2308	-201.909	-24.8443	-45.5207	-189.844	-13.2805	-24.5363	-225.579	-43.9913	-22.9116	-206.92	-37.8541	-37.1559	-189.829	-22.403	-24.9692	-244.319	-18.3355	9.72117	-237.658	-9.20234	34.644	-241.562	14.0606	14.9667	
